<?xml version="1.0" encoding="UTF-8" standalone="no"?>
<!-- Created with Inkscape (http://www.inkscape.org/) -->

<svg
   xmlns:dc="http://purl.org/dc/elements/1.1/"
   xmlns:cc="http://creativecommons.org/ns#"
   xmlns:rdf="http://www.w3.org/1999/02/22-rdf-syntax-ns#"
   xmlns:svg="http://www.w3.org/2000/svg"
   xmlns="http://www.w3.org/2000/svg"
   xmlns:sodipodi="http://sodipodi.sourceforge.net/DTD/sodipodi-0.dtd"
   xmlns:inkscape="http://www.inkscape.org/namespaces/inkscape"
   width="65.626999mm"
   height="58.389412mm"
   viewBox="0 0 65.626999 58.389412"
   version="1.1"
   id="svg8"
   inkscape:version="0.92.5 (2060ec1f9f, 2020-04-08)"
   sodipodi:docname="react-chromecast.svg">
  <defs
     id="defs2" />
  <sodipodi:namedview
     id="base"
     pagecolor="#ffffff"
     bordercolor="#666666"
     borderopacity="1.0"
     inkscape:pageopacity="0.0"
     inkscape:pageshadow="2"
     inkscape:zoom="1.4"
     inkscape:cx="1.7520496"
     inkscape:cy="115.71555"
     inkscape:document-units="mm"
     inkscape:current-layer="g6175"
     showgrid="false"
     inkscape:window-width="1366"
     inkscape:window-height="705"
     inkscape:window-x="-8"
     inkscape:window-y="-8"
     inkscape:window-maximized="1" />
  <metadata
     id="metadata5">
    <rdf:RDF>
      <cc:Work
         rdf:about="">
        <dc:format>image/svg+xml</dc:format>
        <dc:type
           rdf:resource="http://purl.org/dc/dcmitype/StillImage" />
        <dc:title></dc:title>
      </cc:Work>
    </rdf:RDF>
  </metadata>
  <g
     inkscape:label="Camada 1"
     inkscape:groupmode="layer"
     id="layer1"
     transform="translate(-77.328605,-206.58588)">
    <g
       transform="matrix(1.0824643,0,0,1.0824643,-82.431186,-43.403045)"
       id="g6175">
      <g
         id="g6373">
        <path
           transform="matrix(0.24442684,0,0,0.24442684,147.58897,230.94427)"
           id="path6131"
           d="M 174.37305 0.4375 C 161.96075 0.34945218 146.05113 8.2148582 130.02148 22.164062 A 165.90676 165.90676 0 0 0 123.8457 27.830078 A 151.01823 151.01823 0 0 0 119.73438 24.035156 C 97.335158 4.1464652 74.883555 -4.2334539 61.402344 3.5703125 C 48.475449 11.053574 44.646467 33.27454 50.087891 61.080078 A 165.65867 165.65867 0 0 0 51.921875 69.294922 C 48.745055 70.197278 45.677544 71.158553 42.742188 72.181641 C 16.482265 81.336732 -0.2890625 95.68725 -0.2890625 110.57031 C -0.2890625 125.94293 17.71315 141.36071 45.066406 150.70898 A 140.99264 140.99264 0 0 0 51.773438 152.80664 A 162.25899 162.25899 0 0 0 49.824219 161.66211 C 44.636327 188.98464 48.689176 210.67812 61.582031 218.11523 C 74.898613 225.79389 97.248111 217.90268 119.01172 198.87891 C 120.73187 197.37502 122.45856 195.77925 124.1875 194.10742 A 162.83751 162.83751 0 0 0 130.89258 200.22461 C 151.97341 218.36464 172.79389 225.68934 185.67578 218.23242 C 198.98029 210.53073 203.30129 187.22661 197.6875 158.87109 C 197.2594 156.70525 196.76101 154.49277 196.20117 152.24023 C 197.77093 151.77699 199.31167 151.29718 200.81445 150.79883 C 229.25008 141.3781 247.75 126.14823 247.75 110.57031 C 247.75 95.633451 230.43748 81.186908 203.64844 71.964844 A 166.15704 166.15704 0 0 0 195.66406 69.449219 A 150.93809 150.93809 0 0 0 196.89844 64.003906 C 202.94258 34.663757 198.98967 11.026827 185.49414 3.2460938 C 182.25941 1.3805049 178.51048 0.46684927 174.37305 0.4375 z M 173.83398 11.011719 C 176.34649 10.974914 178.49725 11.443924 180.20312 12.427734 C 188.50855 17.218207 191.7401 36.534823 186.52148 61.867188 A 139.98822 139.98822 0 0 1 185.40625 66.796875 C 175.11614 64.422504 163.93985 62.656305 152.24023 61.558594 C 145.42441 51.853522 138.36259 43.028657 131.27344 35.390625 A 155.79007 155.79007 0 0 1 136.97852 30.158203 C 151.28504 17.70752 164.86076 11.143163 173.83398 11.011719 z M 73.505859 11.248047 C 83.085661 11.428523 97.589988 18.545433 112.69922 31.960938 C 113.93529 33.058648 115.1762 34.207662 116.41992 35.396484 C 109.21441 43.134423 102.09366 51.944135 95.291016 61.544922 C 83.625439 62.626186 72.459335 64.361405 62.193359 66.6875 A 155.35647 155.35647 0 0 1 60.488281 59.046875 C 55.826775 35.22377 58.922508 17.251514 66.712891 12.742188 C 68.528263 11.691381 70.823515 11.197514 73.505859 11.248047 z M 123.84961 42.96875 C 128.73672 48.263095 133.63066 54.175818 138.44531 60.589844 A 312.02471 312.02471 0 0 0 109.12891 60.580078 C 113.94766 54.225709 118.886 48.324307 123.84961 42.96875 z M 123.73047 70.835938 C 131.41019 70.835938 138.98286 71.13131 146.35742 71.693359 A 319.11497 319.11497 0 0 1 158.30859 90.773438 A 347.34203 347.34203 0 0 1 169.00195 110.67578 A 319.22693 319.22693 0 0 1 158.34375 130.75391 A 347.4079 347.4079 0 0 1 146.44531 149.95312 C 139.0861 150.47893 131.48048 150.75 123.73047 150.75 C 116.01233 150.75 108.50419 150.50958 101.27344 150.04102 A 300.55671 300.55671 0 0 1 89.150391 130.8125 A 297.8519 297.8519 0 0 1 78.568359 110.82617 A 300.62916 300.62916 0 0 1 89.117188 90.832031 L 89.117188 90.830078 A 297.76188 297.76188 0 0 1 101.14453 71.685547 C 108.5213 71.127916 116.08479 70.835938 123.73047 70.835938 z M 87.541016 73.041016 A 311.52524 311.52524 0 0 0 79.9375 85.539062 A 313.11695 313.11695 0 0 0 72.935547 98.365234 C 69.849797 91.046644 67.210629 83.851008 65.054688 76.902344 C 72.131774 75.318352 79.677968 74.023477 87.541016 73.041016 z M 159.9375 73.060547 C 167.85218 74.059496 175.43481 75.38795 182.55469 77.013672 C 180.4174 83.864638 177.75257 91.029214 174.61523 98.373047 A 369.29886 369.29886 0 0 0 167.48047 85.464844 A 336.98384 336.98384 0 0 0 159.9375 73.060547 z M 54.767578 79.503906 C 57.871983 89.599729 61.943968 100.15572 66.857422 110.83008 C 61.880309 121.66359 57.750109 132.38718 54.617188 142.60156 A 130.52906 130.52906 0 0 1 48.494141 140.68555 C 36.399356 136.55151 26.411001 131.17828 19.564453 125.31641 C 13.412756 120.0473 10.306641 114.81722 10.306641 110.57227 C 10.306641 101.54126 23.77197 90.019567 46.230469 82.189453 A 152.88767 152.88767 0 0 1 54.767578 79.503906 z M 192.82617 79.660156 C 195.36305 80.395632 197.82591 81.168537 200.19922 81.986328 C 223.15275 89.886688 237.1543 101.57088 237.1543 110.57227 C 237.1543 120.16098 222.03316 132.60886 197.48242 140.74414 L 197.48047 140.74414 C 196.12477 141.19311 194.73275 141.62646 193.31445 142.04688 C 190.17495 132.10914 185.93742 121.54197 180.75391 110.625 C 185.7014 99.966023 189.7745 89.534276 192.82617 79.660156 z M 174.7168 122.9043 C 178.03194 130.46108 180.82727 137.77267 183.04688 144.72461 C 175.85454 146.36571 168.08959 147.68657 159.9082 148.66797 A 370.52503 370.52503 0 0 0 167.52344 136.04688 A 336.59963 336.59963 0 0 0 174.7168 122.9043 z M 72.949219 123.28516 A 311.20032 311.20032 0 0 0 79.980469 136.12109 A 313.14989 313.14989 0 0 0 87.767578 148.85938 C 79.644371 147.95264 71.983081 146.72369 64.908203 145.18359 C 67.098184 138.11199 69.797601 130.76069 72.949219 123.28516 z M 185.95117 154.92969 C 186.45611 156.97144 186.9074 158.97241 187.29492 160.92969 C 189.77689 173.46796 190.13075 184.80402 188.48633 193.66602 C 187.00879 201.62897 184.03824 206.93817 180.36523 209.06445 C 172.54829 213.58932 155.83164 207.70846 137.80469 192.19531 C 135.73765 190.41699 133.65431 188.51663 131.56641 186.50781 C 138.55565 178.86319 145.54049 169.97602 152.35742 160.10742 C 164.34903 159.04371 175.6775 157.30406 185.95117 154.92969 z M 62.046875 155.4043 C 72.206397 157.65135 83.454448 159.26937 95.474609 160.24414 C 102.33654 169.90089 109.5228 178.77583 116.76562 186.54883 A 130.47967 130.47967 0 0 1 112.03906 190.90039 C 102.41528 199.31338 92.772095 205.28091 84.273438 208.2832 C 76.63651 210.98033 70.553227 211.05723 66.876953 208.9375 C 59.052322 204.42584 55.8004 187.00386 60.236328 163.63867 A 152.04351 152.04351 0 0 1 62.046875 155.4043 z M 138.70312 161.01367 C 133.87309 167.57813 128.99675 173.57896 124.14258 178.92383 C 119.12046 173.50433 114.11138 167.51145 109.21875 161.06445 C 113.96757 161.25101 118.80932 161.3457 123.73047 161.3457 C 128.78662 161.3457 133.78419 161.23337 138.70312 161.01367 z "
           style="fill:#53c1de;stroke-width:1.08246422" />
        <g
           clip-path="none"
           mask="none"
           transform="matrix(0.02107679,0,0,0.02107679,71.345975,184.80398)"
           id="g6139"
           stroke="null"
           style="fill:#53c1de">
          <path
             d="m 5281.7894,3244.3503 h -459 c -28.05,0 -51,22.95 -51,51 v 76.5 h 51 v -76.5 h 459 v 357 h -178.5 v 51 h 178.5 c 28.05,0 51,-22.95 51,-51 v -357 c 0,-28.05 -22.95,-51 -51,-51 z m -510,382.5 v 76.5 h 76.5 c 0,-43.35 -33.15,-76.5 -76.5,-76.5 z m 0,-102 v 51 c 71.4,0 127.5,56.1 127.5,127.5 h 51 c 0,-99.45 -79.05,-178.5 -178.5,-178.5 z m 0,-102 v 51 c 127.5,0 229.5,102 229.5,229.5 h 51 c 0,-155.55 -124.95,-280.5 -280.5,-280.5 z"
             id="path6137"
             stroke="null"
             inkscape:connector-curvature="0" />
        </g>
      </g>
      <g
         style="fill:#53c1de"
         id="g6143"
         transform="matrix(0.02107679,0,0,0.02107679,10.588291,175.72542)"
         stroke="null" />
      <g
         style="fill:#53c1de"
         id="g6145"
         transform="matrix(0.02107679,0,0,0.02107679,10.588291,175.72542)"
         stroke="null" />
      <g
         style="fill:#53c1de"
         id="g6147"
         transform="matrix(0.02107679,0,0,0.02107679,10.588291,175.72542)"
         stroke="null" />
      <g
         style="fill:#53c1de"
         id="g6149"
         transform="matrix(0.02107679,0,0,0.02107679,10.588291,175.72542)"
         stroke="null" />
      <g
         style="fill:#53c1de"
         id="g6151"
         transform="matrix(0.02107679,0,0,0.02107679,10.588291,175.72542)"
         stroke="null" />
      <g
         style="fill:#53c1de"
         id="g6153"
         transform="matrix(0.02107679,0,0,0.02107679,10.588291,175.72542)"
         stroke="null" />
      <g
         style="fill:#53c1de"
         id="g6155"
         transform="matrix(0.02107679,0,0,0.02107679,10.588291,175.72542)"
         stroke="null" />
      <g
         style="fill:#53c1de"
         id="g6157"
         transform="matrix(0.02107679,0,0,0.02107679,10.588291,175.72542)"
         stroke="null" />
      <g
         style="fill:#53c1de"
         id="g6159"
         transform="matrix(0.02107679,0,0,0.02107679,10.588291,175.72542)"
         stroke="null" />
      <g
         style="fill:#53c1de"
         id="g6161"
         transform="matrix(0.02107679,0,0,0.02107679,10.588291,175.72542)"
         stroke="null" />
      <g
         style="fill:#53c1de"
         id="g6163"
         transform="matrix(0.02107679,0,0,0.02107679,10.588291,175.72542)"
         stroke="null" />
      <g
         style="fill:#53c1de"
         id="g6165"
         transform="matrix(0.02107679,0,0,0.02107679,10.588291,175.72542)"
         stroke="null" />
      <g
         style="fill:#53c1de"
         id="g6167"
         transform="matrix(0.02107679,0,0,0.02107679,10.588291,175.72542)"
         stroke="null" />
      <g
         style="fill:#53c1de"
         id="g6169"
         transform="matrix(0.02107679,0,0,0.02107679,10.588291,175.72542)"
         stroke="null" />
      <g
         style="fill:#53c1de"
         id="g6171"
         transform="matrix(0.02107679,0,0,0.02107679,10.588291,175.72542)"
         stroke="null" />
    </g>
  </g>
</svg>
